<svg xmlns="http://www.w3.org/2000/svg" width="512" height="512" viewBox="0 0 512 512">
  <defs>
    <linearGradient id="bg" x1="0" x2="1" y1="0" y2="1">
      <stop offset="0" stop-color="#ff8a3d"/>
      <stop offset="1" stop-color="#1b2a34"/>
    </linearGradient>
    <filter id="shadow" x="-20%" y="-20%" width="140%" height="140%">
      <feDropShadow dx="0" dy="10" stdDeviation="10" flood-color="#000000" flood-opacity="0.25"/>
    </filter>
  </defs>
  <g filter="url(#shadow)">
    <rect x="72" y="72" width="368" height="368" rx="36" fill="url(#bg)"/>
    <path d="M256 170c78 0 132 60 118 142-11 66-55 108-118 108s-107-42-118-108c-14-82 40-142 118-142z" fill="#f6d3c2"/>
    <path d="M156 232c14-58 62-96 120-96 65 0 113 44 120 106-22-14-54-20-94-12-26 5-49 18-72 28-27 12-52 14-74 6z" fill="#1b1f26"/>
    <path d="M168 252c18 18 52 20 88 6 24-10 46-22 70-28 28-7 54-6 72 2-2 14-7 28-15 40-18-12-43-14-68-8-22 5-45 18-68 28-35 16-63 16-79 8z" fill="#12161c" opacity="0.92"/>
    <ellipse cx="214" cy="284" rx="30" ry="22" fill="#ffffff"/>
    <ellipse cx="298" cy="284" rx="30" ry="22" fill="#ffffff"/>
    <circle cx="214" cy="288" r="14" fill="#2b3943"/>
    <circle cx="298" cy="288" r="14" fill="#2b3943"/>
    <circle cx="209" cy="283" r="5" fill="#ffffff" opacity="0.9"/>
    <circle cx="293" cy="283" r="5" fill="#ffffff" opacity="0.9"/>
    <path d="M184 270c14-16 52-16 66 0" stroke="#1b1f26" stroke-width="10" stroke-linecap="round"/>
    <path d="M268 270c14-16 52-16 66 0" stroke="#1b1f26" stroke-width="10" stroke-linecap="round"/>
    <path d="M228 344c18 16 38 16 56 0" stroke="#c46a63" stroke-width="10" stroke-linecap="round" fill="none"/>
    <circle cx="182" cy="330" r="16" fill="#eaa0a0" opacity="0.35"/>
    <circle cx="330" cy="330" r="16" fill="#eaa0a0" opacity="0.35"/>
  </g>
</svg>