<svg xmlns="http://www.w3.org/2000/svg" width="512" height="512" viewBox="0 0 512 512">
<defs>
  <linearGradient id="bg" x1="0" y1="0" x2="1" y2="1">
    <stop offset="0" stop-color="#16a34a"/>
    <stop offset="1" stop-color="#0b1f2a"/>
  </linearGradient>
  <linearGradient id="metal" x1="0" x2="1">
    <stop offset="0" stop-color="#e9eef2"/>
    <stop offset="1" stop-color="#aab6bf"/>
  </linearGradient>
  <filter id="shadow" x="-20%" y="-20%" width="140%" height="140%">
    <feDropShadow dx="0" dy="10" stdDeviation="10" flood-color="#000" flood-opacity="0.25"/>
  </filter>
</defs>
<g filter="url(#shadow)">
  <rect x="72" y="72" width="368" height="368" rx="36" fill="url(#bg)"/>
  <!-- pen -->
  <path d="M164 340l160-160c14-14 36-14 50 0s14 36 0 50L214 390c-10 10-24 16-38 16h-44l32-66z"
        fill="url(#metal)"/>
  <path d="M164 340l20 20-28 46h-28z" fill="#0b0f14" opacity="0.85"/>
  <rect x="300" y="164" width="70" height="26" rx="13" fill="#1b2a34" opacity="0.35"/>
  <!-- ink drops -->
  <g fill="#0b0f14" opacity="0.55">
    <circle cx="142" cy="182" r="10"/>
    <circle cx="116" cy="216" r="6"/>
    <circle cx="152" cy="226" r="5"/>
  </g>
</g>
</svg>