<svg xmlns="http://www.w3.org/2000/svg" width="512" height="512" viewBox="0 0 512 512">
  <defs>
    <linearGradient id="bg" x1="0" x2="1" y1="0" y2="1">
      <stop offset="0" stop-color="#1683c8"/>
      <stop offset="1" stop-color="#1b2a34"/>
    </linearGradient>
    <linearGradient id="brush" x1="0" x2="1">
      <stop offset="0" stop-color="#f3e3d6"/>
      <stop offset="1" stop-color="#caa58a"/>
    </linearGradient>
    <filter id="shadow" x="-20%" y="-20%" width="140%" height="140%">
      <feDropShadow dx="0" dy="10" stdDeviation="10" flood-color="#000000" flood-opacity="0.25"/>
    </filter>
  </defs>
  <g filter="url(#shadow)">
    <rect x="72" y="72" width="368" height="368" rx="36" fill="url(#bg)"/>
    <g opacity="0.28">
      <rect x="120" y="150" width="220" height="38" rx="19" fill="#ffffff"/>
      <rect x="120" y="206" width="260" height="38" rx="19" fill="#ffffff"/>
      <rect x="120" y="262" width="200" height="38" rx="19" fill="#ffffff"/>
    </g>
    <path d="M344 330c0 44-34 78-78 78-28 0-42-12-54-28 22 0 38-14 46-34 10-26 30-40 60-40 18 0 26 8 26 24z" fill="url(#brush)"/>
    <path d="M304 328l66-66c10-10 26-10 36 0s10 26 0 36l-66 66z" fill="#e9eef2"/>
    <rect x="332" y="274" width="54" height="18" rx="9" fill="#6b7a86" opacity="0.55"/>
  </g>
</svg>