<svg xmlns="http://www.w3.org/2000/svg" width="512" height="512" viewBox="0 0 512 512">
  <defs>
    <linearGradient id="bg" x1="0" x2="1" y1="0" y2="1">
      <stop offset="0" stop-color="#7c5cff"/>
      <stop offset="1" stop-color="#1b2a34"/>
    </linearGradient>
    <filter id="shadow" x="-20%" y="-20%" width="140%" height="140%">
      <feDropShadow dx="0" dy="10" stdDeviation="10" flood-color="#000000" flood-opacity="0.25"/>
    </filter>
  </defs>
  <g filter="url(#shadow)">
    <rect x="72" y="72" width="368" height="368" rx="36" fill="url(#bg)"/>
    <g opacity="0.28" stroke="#ffffff" stroke-width="6">
      <path d="M72 164h368M72 256h368M72 348h368"/>
      <path d="M164 72v368M256 72v368M348 72v368"/>
    </g>
    <g opacity="0.18" fill="#ffffff">
      <circle cx="140" cy="120" r="5"/><circle cx="214" cy="190" r="4"/><circle cx="330" cy="210" r="5"/>
      <circle cx="190" cy="330" r="5"/><circle cx="300" cy="330" r="4"/><circle cx="380" cy="140" r="4"/>
    </g>
    <path d="M356 72h48c20 0 36 16 36 36v48c0 10-8 18-18 18h-66c-10 0-18-8-18-18V90c0-10 8-18 18-18z" fill="#ffffff" opacity="0.16"/>
  </g>
</svg>